<svg width="26" height="26" viewBox="0 0 26 26" fill="none" xmlns="http://www.w3.org/2000/svg">
<path d="M21.256 10.628C21.256 15.935 15.3688 21.4619 13.3918 23.1689C13.2076 23.3074 12.9834 23.3823 12.753 23.3823C12.5226 23.3823 12.2984 23.3074 12.1142 23.1689C10.1373 21.4619 4.25 15.935 4.25 10.628C4.25 8.37288 5.14585 6.2101 6.74048 4.61548C8.3351 3.02085 10.4979 2.125 12.753 2.125C15.0082 2.125 17.1709 3.02085 18.7656 4.61548C20.3602 6.2101 21.256 8.37288 21.256 10.628Z" stroke="white" stroke-width="2.12575" stroke-linecap="round" stroke-linejoin="round"/>
<path d="M12.7511 13.8187C14.5122 13.8187 15.9398 12.3911 15.9398 10.63C15.9398 8.86901 14.5122 7.44141 12.7511 7.44141C10.9901 7.44141 9.5625 8.86901 9.5625 10.63C9.5625 12.3911 10.9901 13.8187 12.7511 13.8187Z" stroke="white" stroke-width="2.12575" stroke-linecap="round" stroke-linejoin="round"/>
</svg>
