<svg width="26" height="26" viewBox="0 0 26 26" fill="none" xmlns="http://www.w3.org/2000/svg">
<path d="M23.3808 17.9832V21.1719C23.382 21.4679 23.3214 21.7609 23.2028 22.0321C23.0842 22.3033 22.9103 22.5468 22.6922 22.7469C22.474 22.947 22.2165 23.0994 21.9361 23.1942C21.6557 23.289 21.3586 23.3243 21.0637 23.2976C17.7931 22.9422 14.6514 21.8246 11.8911 20.0346C9.32302 18.4027 7.14572 16.2254 5.51385 13.6573C3.71756 10.8845 2.5997 7.72752 2.25081 4.44218C2.22425 4.14826 2.25918 3.85202 2.35338 3.57234C2.44758 3.29266 2.59898 3.03566 2.79795 2.8177C2.99691 2.59973 3.23908 2.42559 3.50904 2.30635C3.779 2.18711 4.07082 2.12538 4.36594 2.1251H7.55457C8.07039 2.12003 8.57046 2.30269 8.96157 2.63904C9.35268 2.97539 9.60813 3.44248 9.68033 3.95325C9.81491 4.97369 10.0645 5.97562 10.4243 6.93994C10.5673 7.32037 10.5983 7.73382 10.5135 8.1313C10.4288 8.52878 10.2318 8.89362 9.94605 9.18261L8.59619 10.5325C10.1093 13.1934 12.3125 15.3967 14.9735 16.9097L16.3233 15.5599C16.6123 15.2741 16.9771 15.0772 17.3746 14.9924C17.7721 14.9076 18.1856 14.9386 18.566 15.0816C19.5303 15.4414 20.5322 15.691 21.5527 15.8256C22.069 15.8984 22.5405 16.1585 22.8776 16.5563C23.2146 16.9541 23.3937 17.462 23.3808 17.9832Z" stroke="white" stroke-width="2.12575" stroke-linecap="round" stroke-linejoin="round"/>
</svg>
