<svg width="21" height="21" viewBox="0 0 21 21" fill="none" xmlns="http://www.w3.org/2000/svg">
<path d="M12.3837 18.4798C12.4161 18.5604 12.4723 18.6293 12.5449 18.677C12.6176 18.7248 12.7031 18.7492 12.79 18.747C12.8768 18.7448 12.961 18.716 13.0311 18.6646C13.1011 18.6132 13.1538 18.5415 13.182 18.4593L18.72 2.27123C18.7473 2.19574 18.7525 2.11404 18.735 2.0357C18.7176 1.95736 18.6781 1.88561 18.6214 1.82885C18.5646 1.7721 18.4929 1.73268 18.4145 1.71521C18.3362 1.69774 18.2545 1.70294 18.179 1.73021L1.99094 7.26824C1.90871 7.29643 1.83709 7.34911 1.78566 7.41919C1.73424 7.48927 1.70549 7.5734 1.70326 7.66029C1.70104 7.74719 1.72545 7.83268 1.77321 7.9053C1.82098 7.97792 1.88982 8.03419 1.97049 8.06656L8.72688 10.7759C8.94047 10.8615 9.13452 10.9893 9.29735 11.1519C9.46018 11.3144 9.58841 11.5082 9.67431 11.7217L12.3837 18.4798Z" stroke="white" stroke-width="1.70401" stroke-linecap="round" stroke-linejoin="round"/>
<path d="M18.6178 1.83008L9.29688 11.1502" stroke="white" stroke-width="1.70401" stroke-linecap="round" stroke-linejoin="round"/>
</svg>
