<svg width="18" height="18" viewBox="0 0 18 18" fill="none" xmlns="http://www.w3.org/2000/svg">
<path d="M14.2575 7.12875C14.2575 10.6881 10.3089 14.395 8.98297 15.5399C8.85945 15.6328 8.70908 15.683 8.55453 15.683C8.39998 15.683 8.24962 15.6328 8.1261 15.5399C6.80016 14.395 2.85156 10.6881 2.85156 7.12875C2.85156 5.61623 3.45241 4.16566 4.52192 3.09614C5.59144 2.02663 7.04201 1.42578 8.55453 1.42578C10.0671 1.42578 11.5176 2.02663 12.5871 3.09614C13.6567 4.16566 14.2575 5.61623 14.2575 7.12875Z" stroke="#BBBBBB" stroke-width="1.42574" stroke-linecap="round" stroke-linejoin="round"/>
<path d="M8.56049 9.26551C9.74161 9.26551 10.6991 8.30802 10.6991 7.1269C10.6991 5.94577 9.74161 4.98828 8.56049 4.98828C7.37937 4.98828 6.42188 5.94577 6.42188 7.1269C6.42188 8.30802 7.37937 9.26551 8.56049 9.26551Z" stroke="#BBBBBB" stroke-width="1.42574" stroke-linecap="round" stroke-linejoin="round"/>
</svg>
