<svg width="18" height="18" viewBox="0 0 18 18" fill="none" xmlns="http://www.w3.org/2000/svg">
<g clip-path="url(#clip0_351_7530)">
<path d="M12.1149 1.42578H4.98623C3.01769 1.42578 1.42188 3.0216 1.42188 4.99014V12.1188C1.42188 14.0874 3.01769 15.6832 4.98623 15.6832H12.1149C14.0835 15.6832 15.6793 14.0874 15.6793 12.1188V4.99014C15.6793 3.0216 14.0835 1.42578 12.1149 1.42578Z" stroke="white" stroke-width="1.42574" stroke-linecap="round" stroke-linejoin="round"/>
<path d="M11.3987 8.1051C11.4867 8.69838 11.3853 9.3043 11.1091 9.83667C10.8329 10.369 10.3958 10.8008 9.86005 11.0704C9.32431 11.3401 8.71719 11.4339 8.12504 11.3386C7.53288 11.2433 6.98585 10.9638 6.56175 10.5397C6.13764 10.1156 5.85807 9.56853 5.76278 8.97638C5.66749 8.38422 5.76135 7.7771 6.031 7.24136C6.30066 6.70563 6.73237 6.26856 7.26474 5.99232C7.79711 5.71608 8.40303 5.61474 8.99632 5.70272C9.60149 5.79246 10.1618 6.07446 10.5944 6.50706C11.027 6.93966 11.309 7.49992 11.3987 8.1051Z" stroke="white" stroke-width="1.42574" stroke-linecap="round" stroke-linejoin="round"/>
<path d="M12.4688 4.63281H12.4763" stroke="white" stroke-width="1.42574" stroke-linecap="round" stroke-linejoin="round"/>
</g>
<defs>
<clipPath id="clip0_351_7530">
<rect width="17.1089" height="17.1089" fill="white"/>
</clipPath>
</defs>
</svg>
