<svg width="196" height="453" viewBox="0 0 196 453" fill="none" xmlns="http://www.w3.org/2000/svg">
<path d="M145.411 360.937V42.1148H116.6C116.6 46.1889 116.6 49.8367 116.6 53.437C116.6 161.022 116.499 268.559 116.7 376.144C116.7 382.16 114.746 385.997 109.785 389.692C97.659 398.788 86.0341 408.452 72.7557 419.064V41.5464C66.1415 41.5464 60.2289 41.2621 54.4164 41.7359C52.8631 41.878 50.9089 44.2466 50.3077 45.9047C49.6062 47.9417 50.1072 50.4052 50.1072 52.6791C50.1072 157.99 50.1072 263.301 50.1072 368.564C50.1072 389.266 50.458 410.016 50.3578 430.718C50.3578 433.56 49.6061 437.397 47.6019 439.055C32.3693 451.751 16.6857 439.568 0 452.928V0H195.819C195.819 3.31613 195.819 6.34802 195.819 9.42728C195.819 110.19 195.769 210.953 195.969 311.716C195.969 317.922 194.316 322.138 189.004 326.165C174.574 337.061 160.744 348.62 145.261 360.984L145.411 360.937Z" fill="url(#paint0_linear_351_7425)"/>
<defs>
<linearGradient id="paint0_linear_351_7425" x1="97.9847" y1="0" x2="97.9847" y2="452.928" gradientUnits="userSpaceOnUse">
<stop stop-color="#ED1C24"/>
<stop offset="0.307837" stop-color="#88161A"/>
<stop offset="0.705251" stop-color="#1E0001"/>
</linearGradient>
</defs>
</svg>
