<svg width="18" height="18" viewBox="0 0 18 18" fill="none" xmlns="http://www.w3.org/2000/svg">
<path d="M15.6855 12.0619V14.2005C15.6863 14.399 15.6456 14.5956 15.5661 14.7775C15.4865 14.9594 15.3699 15.1227 15.2236 15.2569C15.0773 15.3911 14.9046 15.4933 14.7165 15.5569C14.5284 15.6205 14.3292 15.6441 14.1314 15.6262C11.9378 15.3879 9.83067 14.6383 7.97934 13.4377C6.25692 12.3432 4.79661 10.8829 3.70211 9.1605C2.49735 7.30077 1.74759 5.18339 1.5136 2.97991C1.49578 2.78278 1.51921 2.5841 1.58239 2.39651C1.64557 2.20893 1.74711 2.03656 1.88056 1.89037C2.01401 1.74419 2.17643 1.62739 2.35749 1.54741C2.53855 1.46744 2.73428 1.42604 2.93221 1.42585H5.07083C5.41679 1.42245 5.75218 1.54496 6.0145 1.77055C6.27681 1.99614 6.44815 2.30942 6.49657 2.65199C6.58683 3.33639 6.75424 4.00839 6.99558 4.65516C7.09149 4.91031 7.11225 5.18761 7.05539 5.4542C6.99854 5.72079 6.86645 5.96549 6.67479 6.15932L5.76944 7.06466C6.78425 8.84937 8.26196 10.3271 10.0467 11.3419L10.952 10.4365C11.1458 10.2449 11.3905 10.1128 11.6571 10.0559C11.9237 9.99908 12.201 10.0198 12.4562 10.1158C13.1029 10.3571 13.7749 10.5245 14.4593 10.6148C14.8056 10.6636 15.1219 10.838 15.348 11.1049C15.574 11.3717 15.6942 11.7123 15.6855 12.0619Z" stroke="#BBBBBB" stroke-width="1.42574" stroke-linecap="round" stroke-linejoin="round"/>
</svg>
