<svg width="32" height="32" viewBox="0 0 32 32" fill="none" xmlns="http://www.w3.org/2000/svg">
<path d="M26.6693 17.3352C26.6693 24.0019 22.0026 27.3352 16.4559 29.2686C16.1655 29.367 15.85 29.3623 15.5626 29.2552C10.0026 27.3352 5.33594 24.0019 5.33594 17.3352V8.0019C5.33594 7.64828 5.47641 7.30914 5.72646 7.05909C5.97651 6.80904 6.31565 6.66857 6.66927 6.66857C9.33594 6.66857 12.6693 5.06857 14.9893 3.0419C15.2717 2.80057 15.6311 2.66797 16.0026 2.66797C16.3741 2.66797 16.7335 2.80057 17.0159 3.0419C19.3493 5.0819 22.6693 6.66857 25.3359 6.66857C25.6896 6.66857 26.0287 6.80904 26.2787 7.05909C26.5288 7.30914 26.6693 7.64828 26.6693 8.0019V17.3352Z" stroke="#ED1C24" stroke-width="2.66667" stroke-linecap="round" stroke-linejoin="round"/>
</svg>
