<svg width="15" height="15" viewBox="0 0 15 15" fill="none" xmlns="http://www.w3.org/2000/svg">
<path d="M6.85313 1.2C5.81979 1.2 4.87812 1.45 4.02813 1.95C3.17813 2.45 2.49479 3.13333 1.97813 4C1.46146 4.86667 1.20312 5.80833 1.20312 6.825C1.20312 7.84167 1.46146 8.78333 1.97813 9.65C2.49479 10.5167 3.17813 11.2 4.02813 11.7C4.87812 12.2 5.81979 12.45 6.85313 12.45C7.48646 12.45 8.10313 12.3417 8.70312 12.125C9.30313 11.9083 9.85313 11.6167 10.3531 11.25L12.7031 13.55C12.8031 13.6833 12.9448 13.75 13.1281 13.75C13.3115 13.75 13.4615 13.6917 13.5781 13.575C13.6948 13.4583 13.7531 13.3083 13.7531 13.125C13.7531 12.9417 13.6865 12.8 13.5531 12.7L11.2531 10.35C11.6198 9.85 11.9115 9.3 12.1281 8.7C12.3448 8.1 12.4531 7.48333 12.4531 6.85C12.4531 5.81667 12.2031 4.86667 11.7031 4C11.2031 3.13333 10.5198 2.45 9.65312 1.95C8.78646 1.45 7.85313 1.2 6.85313 1.2ZM6.85313 2.45C7.65313 2.45 8.38646 2.65 9.05312 3.05C9.71979 3.45 10.2448 3.98333 10.6281 4.65C11.0115 5.31667 11.2031 6.04167 11.2031 6.825C11.2031 7.60833 11.0115 8.34167 10.6281 9.025C10.2448 9.70833 9.71979 10.2417 9.05312 10.625C8.38646 11.0083 7.65313 11.2 6.85313 11.2C6.05312 11.2 5.31979 11.0083 4.65313 10.625C3.98646 10.2417 3.45312 9.70833 3.05313 9.025C2.65313 8.34167 2.45312 7.60833 2.45312 6.825C2.45312 6.04167 2.65313 5.31667 3.05313 4.65C3.45312 3.98333 3.98646 3.45 4.65313 3.05C5.31979 2.65 6.05312 2.45 6.85313 2.45Z" fill="white"/>
</svg>
