<svg width="15" height="15" viewBox="0 0 15 15" fill="none" xmlns="http://www.w3.org/2000/svg">
<path d="M6.8502 1.2C5.81686 1.2 4.8752 1.45 4.0252 1.95C3.1752 2.45 2.49186 3.13333 1.9752 4C1.45853 4.86667 1.2002 5.80833 1.2002 6.825C1.2002 7.84167 1.45853 8.78333 1.9752 9.65C2.49186 10.5167 3.1752 11.2 4.0252 11.7C4.8752 12.2 5.81686 12.45 6.8502 12.45C7.48353 12.45 8.1002 12.3417 8.7002 12.125C9.3002 11.9083 9.8502 11.6167 10.3502 11.25L12.7002 13.55C12.8002 13.6833 12.9419 13.75 13.1252 13.75C13.3085 13.75 13.4585 13.6917 13.5752 13.575C13.6919 13.4583 13.7502 13.3083 13.7502 13.125C13.7502 12.9417 13.6835 12.8 13.5502 12.7L11.2502 10.35C11.6169 9.85 11.9085 9.3 12.1252 8.7C12.3419 8.1 12.4502 7.48333 12.4502 6.85C12.4502 5.81667 12.2002 4.86667 11.7002 4C11.2002 3.13333 10.5169 2.45 9.6502 1.95C8.78353 1.45 7.8502 1.2 6.8502 1.2ZM6.8502 2.45C7.6502 2.45 8.38353 2.65 9.0502 3.05C9.71686 3.45 10.2419 3.98333 10.6252 4.65C11.0085 5.31667 11.2002 6.04167 11.2002 6.825C11.2002 7.60833 11.0085 8.34167 10.6252 9.025C10.2419 9.70833 9.71686 10.2417 9.0502 10.625C8.38353 11.0083 7.6502 11.2 6.8502 11.2C6.0502 11.2 5.31686 11.0083 4.6502 10.625C3.98353 10.2417 3.4502 9.70833 3.0502 9.025C2.6502 8.34167 2.4502 7.60833 2.4502 6.825C2.4502 6.04167 2.6502 5.31667 3.0502 4.65C3.4502 3.98333 3.98353 3.45 4.6502 3.05C5.31686 2.65 6.0502 2.45 6.8502 2.45Z" fill="white"/>
</svg>
