<svg width="32" height="32" viewBox="0 0 32 32" fill="none" xmlns="http://www.w3.org/2000/svg">
<path d="M26.6693 13.3346C26.6693 19.992 19.2839 26.9253 16.8039 29.0666C16.5729 29.2404 16.2917 29.3343 16.0026 29.3343C15.7135 29.3343 15.4323 29.2404 15.2013 29.0666C12.7213 26.9253 5.33594 19.992 5.33594 13.3346C5.33594 10.5057 6.45974 7.79255 8.46013 5.79216C10.4605 3.79178 13.1736 2.66797 16.0026 2.66797C18.8316 2.66797 21.5447 3.79178 23.5451 5.79216C25.5455 7.79255 26.6693 10.5057 26.6693 13.3346Z" stroke="#ED1C24" stroke-width="2.66667" stroke-linecap="round" stroke-linejoin="round"/>
<path d="M16 17.332C18.2091 17.332 20 15.5412 20 13.332C20 11.1229 18.2091 9.33203 16 9.33203C13.7909 9.33203 12 11.1229 12 13.332C12 15.5412 13.7909 17.332 16 17.332Z" stroke="#ED1C24" stroke-width="2.66667" stroke-linecap="round" stroke-linejoin="round"/>
</svg>
