<svg width="24" height="24" viewBox="0 0 24 24" fill="none" xmlns="http://www.w3.org/2000/svg">
<path d="M12.0011 20.4621L11.1551 17.9241H5.23106C4.76573 17.9241 4.3674 17.7587 4.03606 17.4281C3.70473 17.0967 3.53906 16.6984 3.53906 16.2331V5.23806C3.53906 4.77273 3.7044 4.37306 4.03506 4.03906C4.36706 3.70573 4.76573 3.53906 5.23106 3.53906H10.3081L11.0481 6.07606H18.7691C19.2624 6.07606 19.6681 6.2344 19.9861 6.55106C20.3041 6.86773 20.4627 7.27306 20.4621 7.76706V18.7621C20.4621 19.2274 20.3034 19.6271 19.9861 19.9611C19.6687 20.2951 19.2631 20.4617 18.7691 20.4611L12.0011 20.4621ZM7.91006 14.1961C8.8874 14.1961 9.68606 13.8824 10.3061 13.2551C10.9261 12.6277 11.2361 11.8134 11.2361 10.8121C11.2361 10.6654 11.2351 10.5507 11.2331 10.4681C11.2311 10.3854 11.2157 10.3051 11.1871 10.2271H7.82606V11.5271H9.72406C9.60406 11.9297 9.3884 12.2411 9.07706 12.4611C8.7664 12.6811 8.38473 12.7911 7.93206 12.7911C7.38073 12.7911 6.90706 12.5897 6.51106 12.1871C6.11506 11.7844 5.91706 11.2991 5.91706 10.7311C5.91706 10.1631 6.11373 9.67773 6.50706 9.27506C6.9004 8.8724 7.3714 8.67106 7.92006 8.67106C8.17273 8.67106 8.41006 8.71573 8.63206 8.80506C8.85406 8.8944 9.0604 9.0344 9.25106 9.22506L10.2841 8.24206C9.9854 7.9394 9.62806 7.70106 9.21206 7.52706C8.79606 7.35306 8.35606 7.26606 7.89206 7.26606C6.94806 7.26606 6.1414 7.60406 5.47206 8.28006C4.8014 8.95606 4.46606 9.77273 4.46606 10.7301C4.46606 11.6874 4.80273 12.5047 5.47606 13.1821C6.1494 13.8594 6.96073 14.1974 7.91006 14.1961ZM13.5631 14.6191L14.0361 14.1711C13.8407 13.9264 13.6571 13.6931 13.4851 13.4711C13.3131 13.2491 13.1544 13.0141 13.0091 12.7661L13.5631 14.6191ZM14.6201 13.5371C15.0174 13.0731 15.3191 12.6304 15.5251 12.2091C15.7311 11.7877 15.8694 11.4544 15.9401 11.2091H12.5801L12.8301 12.1041H13.6631C13.7744 12.3167 13.9084 12.5457 14.0651 12.7911C14.2217 13.0364 14.4067 13.2857 14.6201 13.5371ZM12.8471 19.6161H18.7701C19.0241 19.6161 19.2287 19.5347 19.3841 19.3721C19.5387 19.2101 19.6161 19.0094 19.6161 18.7701V7.77706C19.6161 7.52373 19.5387 7.31773 19.3841 7.15906C19.2287 7.00173 19.0244 6.92306 18.7711 6.92306H11.3111L12.3011 10.3581H13.9671V9.46806H14.8321V10.3581H17.9241V11.2101H16.8421C16.7007 11.7407 16.4921 12.2611 16.2161 12.7711C15.9407 13.2817 15.6101 13.7567 15.2241 14.1961L17.5261 16.4671L16.9161 17.0771L14.6211 14.8001L13.8561 15.5711L14.5411 17.9231L12.8471 19.6161Z" fill="white"/>
</svg>
