<svg width="13" height="13" viewBox="0 0 13 13" fill="none" xmlns="http://www.w3.org/2000/svg">
<path d="M11.9141 0H4.42738C4.23928 0 4.08707 0.152212 4.08707 0.340314C4.08707 0.528417 4.23928 0.680629 4.42738 0.680629H11.0926L0.103124 11.6701C-0.0298174 11.803 -0.0298174 12.0183 0.103124 12.1513C0.169579 12.2177 0.256676 12.2509 0.34374 12.2509C0.430805 12.2509 0.51787 12.2177 0.584357 12.1513L11.5738 1.16183V7.82701C11.5738 8.01511 11.7259 8.16732 11.9141 8.16732C12.1022 8.16732 12.2544 8.01511 12.2544 7.82701V0.340314C12.2544 0.152212 12.1021 0 11.9141 0Z" fill="white"/>
</svg>
