<svg width="13" height="13" viewBox="0 0 13 13" fill="none" xmlns="http://www.w3.org/2000/svg">
<path d="M11.9107 0H4.42396C4.23586 0 4.08365 0.152212 4.08365 0.340314C4.08365 0.528417 4.23586 0.680629 4.42396 0.680629H11.0891L0.0997062 11.6701C-0.0332354 11.803 -0.0332354 12.0183 0.0997062 12.1513C0.166161 12.2177 0.253258 12.2509 0.340322 12.2509C0.427387 12.2509 0.514452 12.2177 0.580939 12.1513L11.5703 1.16183V7.82701C11.5703 8.01511 11.7225 8.16732 11.9107 8.16732C12.0988 8.16732 12.251 8.01511 12.251 7.82701V0.340314C12.251 0.152212 12.0987 0 11.9107 0Z" fill="#200517"/>
</svg>
