<svg width="18" height="18" viewBox="0 0 18 18" fill="none" xmlns="http://www.w3.org/2000/svg">
<path d="M13.5798 3.50027C12.9261 2.84023 12.1476 2.31688 11.2897 1.96073C10.4317 1.60458 9.51145 1.42274 8.58252 1.42582C4.69024 1.42582 1.51797 4.5981 1.51797 8.49037C1.51797 9.7379 1.84589 10.9498 2.45896 12.0191L1.46094 15.6832L5.20351 14.6995C6.23718 15.2627 7.39916 15.5621 8.58252 15.5621C12.4748 15.5621 15.6471 12.3898 15.6471 8.4975C15.6471 6.60839 14.9128 4.83334 13.5798 3.50027ZM8.58252 14.3644C7.52747 14.3644 6.49381 14.0793 5.58846 13.5446L5.3746 13.4163L3.15044 14.0009L3.74213 11.8337L3.59955 11.6128C3.01325 10.6768 2.70199 9.59481 2.70133 8.49037C2.70133 5.25394 5.33896 2.61631 8.57539 2.61631C10.1437 2.61631 11.6194 3.22938 12.7243 4.34146C13.2715 4.886 13.7052 5.53377 14.0001 6.2472C14.295 6.96063 14.4453 7.72552 14.4423 8.4975C14.4566 11.7339 11.819 14.3644 8.58252 14.3644ZM11.8047 9.97315C11.6265 9.8876 10.7568 9.45988 10.5999 9.39572C10.436 9.33869 10.3219 9.31018 10.2007 9.48127C10.0796 9.65948 9.7445 10.0587 9.6447 10.1728C9.5449 10.2939 9.43797 10.3082 9.25975 10.2155C9.08153 10.13 8.51123 9.9375 7.84114 9.33869C7.31361 8.8682 6.9643 8.29077 6.85737 8.11255C6.75757 7.93433 6.84312 7.84166 6.93579 7.74899C7.0142 7.67057 7.11401 7.54225 7.19955 7.44245C7.2851 7.34265 7.32074 7.26424 7.37777 7.15018C7.4348 7.02899 7.40628 6.92919 7.36351 6.84364C7.32074 6.7581 6.9643 5.88839 6.82173 5.53196C6.67916 5.18978 6.52945 5.23255 6.42252 5.22542H6.08034C5.95916 5.22542 5.77381 5.2682 5.60985 5.44641C5.45302 5.62463 4.99678 6.05235 4.99678 6.92206C4.99678 7.79176 5.63123 8.63295 5.71678 8.74701C5.80232 8.8682 6.9643 10.6504 8.73222 11.4131C9.15282 11.5985 9.48074 11.7054 9.73737 11.7838C10.158 11.9193 10.5429 11.8979 10.8495 11.8551C11.1916 11.8052 11.8974 11.4274 12.0399 11.0139C12.1897 10.6005 12.1897 10.2512 12.1398 10.1728C12.0898 10.0943 11.9829 10.0587 11.8047 9.97315Z" fill="white"/>
</svg>
