<svg width="57" height="57" viewBox="0 0 57 57" fill="none" xmlns="http://www.w3.org/2000/svg">
<g clip-path="url(#clip0_460_7778)">
<g clip-path="url(#clip1_460_7778)">
<path d="M22.1757 4.19336C18.6905 4.19336 15.5316 6.24391 14.1128 9.42711L8.37174 22.3076C4.93006 22.5442 2.21094 25.409 2.21094 28.9107V33.9867C2.21094 37.0337 4.68113 39.5038 7.7282 39.5038H9.24049C9.24865 39.0793 9.25947 38.6548 9.27304 38.2302C8.91386 37.4981 8.71139 36.6752 8.71139 35.8046L8.61096 31.8901C8.61096 28.9951 9.19999 27.8809 11.3489 27.448C12.3703 27.2422 13.2255 26.5462 13.6441 25.592L20.7335 9.42711C22.1522 6.24391 25.3112 4.19336 28.7964 4.19336H22.1757Z" fill="#EEF1FB"/>
<path d="M7.7282 39.5039C4.68113 39.5039 2.21094 37.0337 2.21094 33.9867V28.9107C2.21094 25.409 4.93006 22.5442 8.37174 22.3076L14.1128 9.42711C15.5315 6.24391 18.6904 4.19336 22.1757 4.19336H32.2276C35.5444 4.19336 38.5812 6.05246 40.0896 9.00641L42.9283 14.5659M54.2939 28.9107C54.2939 25.2542 51.3297 22.29 47.6732 22.29H17.5489M26.5973 14.5659V4.30371M30.5697 39.5039H25.604M19.535 35.09C17.0973 35.09 15.1212 37.0662 15.1212 39.5039C15.1212 41.9415 17.0973 43.9177 19.535 43.9177C21.9725 43.9177 23.9488 41.9415 23.9488 39.5039C23.9488 37.0662 21.9727 35.09 19.535 35.09Z" stroke="#530000" stroke-width="2.82484" stroke-miterlimit="10" stroke-linecap="round" stroke-linejoin="round"/>
<path d="M54.2956 39.1744C54.2956 43.4099 50.8621 46.8986 46.6267 46.8986C42.3912 46.8986 38.9577 43.4651 38.9577 39.2296C38.9577 34.994 42.4464 31.5605 46.6818 31.5605M40.9991 45.2986L33.9922 52.3055" stroke="#160C0C" stroke-width="2.82484" stroke-miterlimit="10" stroke-linecap="round" stroke-linejoin="round"/>
</g>
</g>
<defs>
<clipPath id="clip0_460_7778">
<rect width="56.4968" height="56.4968" fill="white"/>
</clipPath>
<clipPath id="clip1_460_7778">
<rect width="56.4968" height="56.4968" fill="white"/>
</clipPath>
</defs>
</svg>
