<svg width="38" height="38" viewBox="0 0 38 38" fill="none" xmlns="http://www.w3.org/2000/svg">
<path d="M25.0258 32.8397V29.7122C25.0258 28.0532 24.3667 26.4622 23.1937 25.2891C22.0206 24.1161 20.4296 23.457 18.7706 23.457H9.38794C7.72898 23.457 6.13796 24.1161 4.9649 25.2891C3.79183 26.4622 3.13281 28.0532 3.13281 29.7122V32.8397" stroke="black" stroke-width="1.87654" stroke-linecap="round" stroke-linejoin="round"/>
<path d="M14.0833 17.2017C17.5379 17.2017 20.3384 14.4011 20.3384 10.9465C20.3384 7.49192 17.5379 4.69141 14.0833 4.69141C10.6286 4.69141 7.82812 7.49192 7.82812 10.9465C7.82812 14.4011 10.6286 17.2017 14.0833 17.2017Z" stroke="black" stroke-width="1.87654" stroke-linecap="round" stroke-linejoin="round"/>
<path d="M34.4023 32.8415V29.7139C34.4012 28.328 33.94 26.9817 33.0908 25.8863C32.2417 24.7909 31.0529 24.0086 29.7109 23.6621" stroke="black" stroke-width="1.87654" stroke-linecap="round" stroke-linejoin="round"/>
<path d="M25.0156 4.89453C26.3611 5.23903 27.5537 6.02155 28.4053 7.11871C29.257 8.21588 29.7192 9.56528 29.7192 10.9542C29.7192 12.3431 29.257 13.6925 28.4053 14.7897C27.5537 15.8868 26.3611 16.6693 25.0156 17.0138" stroke="black" stroke-width="1.87654" stroke-linecap="round" stroke-linejoin="round"/>
</svg>
