<svg width="57" height="57" viewBox="0 0 57 57" fill="none" xmlns="http://www.w3.org/2000/svg">
<g clip-path="url(#clip0_460_7754)">
<path d="M28.25 2.20703V6.62085" stroke="#160C0C" stroke-width="2.82484" stroke-miterlimit="10" stroke-linecap="round" stroke-linejoin="round"/>
<path d="M45.906 2.20703L41.4922 6.62085" stroke="#160C0C" stroke-width="2.82484" stroke-miterlimit="10" stroke-linecap="round" stroke-linejoin="round"/>
<path d="M14.5707 34.521C13.4722 33.3392 12.8005 31.7554 12.8005 30.0147C12.8005 28.952 13.0507 27.9479 13.4958 27.0578L17.9097 18.2301C18.9957 16.058 21.2412 14.5664 23.8349 14.5664H17.2142C14.6204 14.5664 12.375 16.058 11.2889 18.2301L6.87509 27.0578C6.43006 27.9479 6.17969 28.952 6.17969 30.0147C6.17969 31.7554 6.85147 33.3392 7.94996 34.521L25.0151 52.881C25.8211 53.7483 26.9716 54.2906 28.2488 54.2906C29.526 54.2906 30.6764 53.7483 31.4824 52.8811L31.5591 52.7986L14.5707 34.521Z" fill="#EEF1FB"/>
<path d="M45.2086 18.2301L49.6224 27.0578C50.0675 27.9477 50.3178 28.952 50.3178 30.0147C50.3178 31.7554 49.6461 33.3393 48.5476 34.5211L31.4824 52.8811C30.6764 53.7483 29.526 54.2906 28.2488 54.2906C26.9716 54.2906 25.8211 53.7483 25.0151 52.8811L7.94996 34.5211C6.85147 33.3393 6.17969 31.7554 6.17969 30.0147C6.17969 28.952 6.43006 27.9477 6.87509 27.0578L11.2889 18.2301C12.375 16.0579 14.6204 14.5664 17.2142 14.5664H39.2833C41.8771 14.5664 44.1225 16.0579 45.2086 18.2301Z" stroke="#530000" stroke-width="2.82484" stroke-miterlimit="10" stroke-linecap="round" stroke-linejoin="round"/>
<path d="M10.5938 2.20703L15.0076 6.62085" stroke="#160C0C" stroke-width="2.82484" stroke-miterlimit="10" stroke-linecap="round" stroke-linejoin="round"/>
<path d="M16.3672 27.8066H40.1243" stroke="#530000" stroke-width="2.82484" stroke-miterlimit="10" stroke-linecap="round" stroke-linejoin="round"/>
<path d="M23.8359 23.3926L28.2498 27.8063L32.6636 23.3926" stroke="#530000" stroke-width="2.82484" stroke-miterlimit="10" stroke-linecap="round" stroke-linejoin="round"/>
<path d="M28.25 41.0479V27.9941" stroke="#530000" stroke-width="2.82484" stroke-miterlimit="10" stroke-linecap="round" stroke-linejoin="round"/>
</g>
<defs>
<clipPath id="clip0_460_7754">
<rect width="56.4968" height="56.4968" fill="white"/>
</clipPath>
</defs>
</svg>
