<svg width="38" height="38" viewBox="0 0 38 38" fill="none" xmlns="http://www.w3.org/2000/svg">
<path d="M8.04524 21.8943C6.87187 19.9728 6.25323 17.7639 6.25784 15.5125C6.25784 8.67251 11.8593 3.12891 18.7681 3.12891C25.6769 3.12891 31.2783 8.67251 31.2783 15.5125C31.2829 17.7639 30.6643 19.9728 29.4909 21.8943" stroke="#200505" stroke-width="1.4074" stroke-linecap="round"/>
<path d="M23.4558 29.7128L23.2525 30.7246C23.0336 31.8302 22.9226 32.3822 22.6739 32.8201C22.2908 33.4949 21.6704 34.0032 20.9334 34.2462C20.4565 34.4042 19.8904 34.4042 18.7645 34.4042C17.6386 34.4042 17.0725 34.4042 16.5955 34.2478C15.8582 34.0044 15.2379 33.4955 14.855 32.8201C14.6064 32.3822 14.4954 31.8302 14.2764 30.7246L14.0731 29.7128M11.5445 26.7385C11.4006 26.3069 11.3287 26.0895 11.3365 25.9144C11.3454 25.7333 11.4065 25.5587 11.5125 25.4116C11.6185 25.2645 11.7649 25.1513 11.9339 25.0856C12.0965 25.0215 12.3248 25.0215 12.7783 25.0215H24.7506C25.2057 25.0215 25.4324 25.0215 25.5951 25.084C25.7643 25.1498 25.9108 25.2633 26.0169 25.4107C26.1229 25.558 26.1839 25.733 26.1924 25.9144C26.2003 26.0895 26.1283 26.3053 25.9845 26.7385C25.7186 27.5376 25.5857 27.9379 25.3808 28.2616C24.9524 28.9381 24.2807 29.4245 23.5043 29.6206C23.1321 29.7128 22.713 29.7128 21.8733 29.7128H15.6557C14.8159 29.7128 14.3953 29.7128 14.0247 29.619C13.2485 29.4234 12.5769 28.9376 12.1481 28.2616C11.9433 27.9379 11.8103 27.5376 11.5445 26.7385Z" stroke="#200505" stroke-width="1.4074"/>
<path d="M12.8994 15.2471L16.4179 18.7656V25.0207M24.6278 15.2471L21.1093 18.7656V25.0207M12.8994 16.4199C13.2105 16.4199 13.5088 16.2963 13.7287 16.0764C13.9487 15.8564 14.0722 15.5581 14.0722 15.2471C14.0722 14.936 13.9487 14.6377 13.7287 14.4177C13.5088 14.1978 13.2105 14.0742 12.8994 14.0742C12.5883 14.0742 12.29 14.1978 12.0701 14.4177C11.8501 14.6377 11.7266 14.936 11.7266 15.2471C11.7266 15.5581 11.8501 15.8564 12.0701 16.0764C12.29 16.2963 12.5883 16.4199 12.8994 16.4199ZM24.6278 16.4199C24.3167 16.4199 24.0184 16.2963 23.7984 16.0764C23.5785 15.8564 23.4549 15.5581 23.4549 15.2471C23.4549 14.936 23.5785 14.6377 23.7984 14.4177C24.0184 14.1978 24.3167 14.0742 24.6278 14.0742C24.9388 14.0742 25.2371 14.1978 25.4571 14.4177C25.677 14.6377 25.8006 14.936 25.8006 15.2471C25.8006 15.5581 25.677 15.8564 25.4571 16.0764C25.2371 16.2963 24.9388 16.4199 24.6278 16.4199Z" stroke="#200505" stroke-width="1.4074" stroke-linecap="round" stroke-linejoin="round"/>
</svg>
