<svg width="30" height="30" viewBox="0 0 30 30" fill="none" xmlns="http://www.w3.org/2000/svg">
<path d="M14.9396 27.385C21.8141 27.385 27.387 21.8121 27.387 14.9376C27.387 8.06312 21.8141 2.49023 14.9396 2.49023C8.06507 2.49023 2.49219 8.06312 2.49219 14.9376C2.49219 21.8121 8.06507 27.385 14.9396 27.385Z" stroke="#200505" stroke-width="2.48948" stroke-linecap="round" stroke-linejoin="round"/>
<path d="M14.9372 22.4056C19.0619 22.4056 22.4056 19.0619 22.4056 14.9372C22.4056 10.8125 19.0619 7.46875 14.9372 7.46875C10.8125 7.46875 7.46875 10.8125 7.46875 14.9372C7.46875 19.0619 10.8125 22.4056 14.9372 22.4056Z" stroke="#200505" stroke-width="2.48948" stroke-linecap="round" stroke-linejoin="round"/>
<path d="M14.9426 17.4262C16.3175 17.4262 17.4321 16.3116 17.4321 14.9367C17.4321 13.5618 16.3175 12.4473 14.9426 12.4473C13.5677 12.4473 12.4531 13.5618 12.4531 14.9367C12.4531 16.3116 13.5677 17.4262 14.9426 17.4262Z" stroke="#200505" stroke-width="2.48948" stroke-linecap="round" stroke-linejoin="round"/>
</svg>
