<svg width="38" height="38" viewBox="0 0 38 38" fill="none" xmlns="http://www.w3.org/2000/svg">
<g clip-path="url(#clip0_460_8042)">
<path d="M0.00781612 15.2515C0.00544094 11.8013 1.17334 8.45231 3.32066 5.75176C5.46798 3.05122 8.46776 1.15882 11.8298 0.383799C15.1918 -0.391218 18.7173 -0.00302475 21.8302 1.48494C24.943 2.97291 27.4592 5.47267 28.9675 8.57574C31.1507 9.64006 33.0481 11.2106 34.5016 13.1565C35.9551 15.1024 36.9227 17.3674 37.3238 19.7629C37.725 22.1584 37.548 24.6151 36.8076 26.9283C36.0672 29.2416 34.7849 31.3445 33.0675 33.062C31.35 34.7794 29.2471 36.0617 26.9339 36.8021C24.6206 37.5424 22.1639 37.7194 19.7684 37.3183C17.3729 36.9172 15.1079 35.9496 13.162 34.4961C11.2161 33.0426 9.64557 31.1452 8.58125 28.962C6.01037 27.7105 3.84322 25.7613 2.32723 23.3369C0.811241 20.9126 0.00751318 18.1108 0.00781612 15.2515ZM12.074 30.1653C13.1938 31.6176 14.6103 32.8144 16.2292 33.676C17.848 34.5377 19.6319 35.0442 21.462 35.162C23.2921 35.2798 25.1263 35.0061 26.8422 34.3591C28.5581 33.7121 30.1164 32.7067 31.4132 31.41C32.7099 30.1133 33.7153 28.555 34.3623 26.839C35.0093 25.1231 35.283 23.2889 35.1652 21.4589C35.0474 19.6288 34.5408 17.8448 33.6792 16.226C32.8176 14.6071 31.6207 13.1906 30.1685 12.0708C30.6996 14.5582 30.6 17.139 29.8787 19.5781C29.1574 22.0173 27.8374 24.2372 26.0389 26.0357C24.2403 27.8342 22.0204 29.1543 19.5813 29.8755C17.1422 30.5968 14.5614 30.6964 12.074 30.1653ZM10.3546 27.1886C11.2084 27.5421 12.1029 27.8001 13.038 27.9627L9.5805 24.5052C9.74314 25.4388 10.0012 26.3333 10.3546 27.1886ZM16.4862 28.0941C17.4212 28.0056 18.3439 27.8152 19.2376 27.5264L10.2678 18.5589C9.95244 19.4087 9.71992 20.2869 9.57347 21.1814L16.4862 28.0941ZM21.5458 26.5178C22.2432 26.1268 22.8984 25.6765 23.5115 25.1667L12.7167 14.3742C12.2039 14.9801 11.7433 15.6283 11.3398 16.3118L21.5458 26.5178ZM25.1698 23.5059C25.6781 22.8961 26.1284 22.2416 26.5209 21.5426L16.3173 11.3342C15.6329 11.7376 14.984 12.1983 14.3774 12.7112L25.1675 23.5059H25.1698ZM27.5296 19.2321C27.8158 18.3533 28.005 17.4369 28.0972 16.483L21.1845 9.5703C20.2776 9.72042 19.4034 9.95186 18.5621 10.2646L27.5296 19.2345V19.2321ZM27.9659 13.0349C27.8057 12.115 27.5462 11.2152 27.1918 10.3514C26.328 9.99704 25.4282 9.7375 24.5084 9.57734L27.9659 13.0349Z" fill="#200505"/>
</g>
<defs>
<clipPath id="clip0_460_8042">
<rect width="37.5308" height="37.5308" fill="white"/>
</clipPath>
</defs>
</svg>
