<svg width="31" height="31" viewBox="0 0 31 31" fill="none" xmlns="http://www.w3.org/2000/svg">
<path d="M25.7397 5.76064C22.2111 5.76064 19.0436 5.12099 16.1853 2.25698C15.9692 2.04115 15.6763 1.91992 15.3709 1.91992C15.0654 1.91992 14.7725 2.04115 14.5564 2.25698C11.6905 5.12099 8.52106 5.76064 4.99627 5.76064C4.6906 5.76064 4.39745 5.88206 4.18132 6.0982C3.96518 6.31434 3.84375 6.60749 3.84375 6.91316V13.8321C3.84375 21.2505 7.62785 26.2928 15.004 28.7534C15.2409 28.8325 15.497 28.8325 15.7339 28.7534C23.1119 26.2947 26.8941 21.2505 26.8941 13.8321V6.91316C26.8941 6.27735 26.3755 5.76064 25.7397 5.76064ZM24.9713 13.8302C24.9713 20.3535 21.8288 24.6139 15.367 26.846C8.90523 24.6139 5.76269 20.3535 5.76269 13.8302V7.6719C8.79574 7.59699 12.2014 7.00152 15.3689 4.13174C18.5307 6.9996 21.9383 7.59506 24.9713 7.6719V13.8302ZM14.4047 16.8882L19.4873 11.8056C19.5766 11.7163 19.6826 11.6455 19.7993 11.5971C19.9159 11.5488 20.041 11.5239 20.1673 11.5239C20.2935 11.5239 20.4186 11.5488 20.5353 11.5971C20.6519 11.6455 20.758 11.7163 20.8472 11.8056C20.9365 11.8949 21.0074 12.0009 21.0557 12.1176C21.104 12.2343 21.1289 12.3593 21.1289 12.4856C21.1289 12.6119 21.104 12.7369 21.0557 12.8536C21.0074 12.9703 20.9365 13.0763 20.8472 13.1656L15.0847 18.9282C14.9954 19.0176 14.8895 19.0886 14.7728 19.137C14.6561 19.1854 14.531 19.2103 14.4047 19.2103C14.2783 19.2103 14.1532 19.1854 14.0366 19.137C13.9199 19.0886 13.8139 19.0176 13.7247 18.9282L10.8434 16.0469C10.663 15.8665 10.5617 15.6219 10.5617 15.3669C10.5617 15.1118 10.663 14.8672 10.8434 14.6869C11.0237 14.5066 11.2683 14.4052 11.5234 14.4052C11.7784 14.4052 12.023 14.5066 12.2034 14.6869L14.4047 16.8882Z" fill="#200505"/>
</svg>
