<svg width="30" height="30" viewBox="0 0 30 30" fill="none" xmlns="http://www.w3.org/2000/svg">
<path d="M19.9185 26.1403V23.6508C19.9185 22.3303 19.394 21.0639 18.4602 20.1302C17.5265 19.1964 16.2601 18.6719 14.9396 18.6719H7.47114C6.15064 18.6719 4.88423 19.1964 3.95049 20.1302C3.01675 21.0639 2.49219 22.3303 2.49219 23.6508V26.1403" stroke="#200505" stroke-width="2.48948" stroke-linecap="round" stroke-linejoin="round"/>
<path d="M11.1899 13.6942C13.9397 13.6942 16.1688 11.4651 16.1688 8.71528C16.1688 5.96548 13.9397 3.73633 11.1899 3.73633C8.44009 3.73633 6.21094 5.96548 6.21094 8.71528C6.21094 11.4651 8.44009 13.6942 11.1899 13.6942Z" stroke="#200505" stroke-width="2.48948" stroke-linecap="round" stroke-linejoin="round"/>
<path d="M27.3827 26.1406V23.6511C27.3818 22.5479 27.0147 21.4763 26.3388 20.6044C25.6629 19.7325 24.7166 19.1098 23.6484 18.834" stroke="#200505" stroke-width="2.48948" stroke-linecap="round" stroke-linejoin="round"/>
<path d="M19.9062 3.89648C20.9772 4.1707 21.9265 4.79357 22.6044 5.66689C23.2823 6.54021 23.6502 7.61431 23.6502 8.71985C23.6502 9.82539 23.2823 10.8995 22.6044 11.7728C21.9265 12.6461 20.9772 13.269 19.9062 13.5432" stroke="#200505" stroke-width="2.48948" stroke-linecap="round" stroke-linejoin="round"/>
</svg>
