<svg width="37" height="37" viewBox="0 0 37 37" fill="none" xmlns="http://www.w3.org/2000/svg">
<path d="M28.8181 25.7849H31.8516C32.7617 25.7849 33.3684 25.1782 33.3684 24.2681V19.7179C33.3684 18.3528 32.3066 17.1394 31.0932 16.836C28.3631 16.0776 24.2678 15.1676 24.2678 15.1676C24.2678 15.1676 22.296 13.0441 20.9309 11.679C20.1726 11.0723 19.2625 10.6173 18.2008 10.6173H7.58348C6.67342 10.6173 5.91504 11.224 5.46002 11.9824L3.33655 16.381C3.13571 16.9668 3.0332 17.5818 3.0332 18.2011V24.2681C3.0332 25.1782 3.63991 25.7849 4.54996 25.7849H7.58348" stroke="#200505" stroke-width="3.03352" stroke-linecap="round" stroke-linejoin="round"/>
<path d="M10.6175 28.8184C12.2929 28.8184 13.651 27.4602 13.651 25.7849C13.651 24.1095 12.2929 22.7513 10.6175 22.7513C8.94214 22.7513 7.58398 24.1095 7.58398 25.7849C7.58398 27.4602 8.94214 28.8184 10.6175 28.8184Z" stroke="#200505" stroke-width="3.03352" stroke-linecap="round" stroke-linejoin="round"/>
<path d="M13.6504 25.7848H22.7509" stroke="#200505" stroke-width="3.03352" stroke-linecap="round" stroke-linejoin="round"/>
<path d="M25.7855 28.8184C27.4608 28.8184 28.819 27.4602 28.819 25.7849C28.819 24.1095 27.4608 22.7513 25.7855 22.7513C24.1101 22.7513 22.752 24.1095 22.752 25.7849C22.752 27.4602 24.1101 28.8184 25.7855 28.8184Z" stroke="#200505" stroke-width="3.03352" stroke-linecap="round" stroke-linejoin="round"/>
</svg>
