<svg width="37" height="37" viewBox="0 0 37 37" fill="none" xmlns="http://www.w3.org/2000/svg">
<path d="M30.3365 19.7176C30.3365 27.3014 25.0278 31.0933 18.7181 33.2926C18.3877 33.4046 18.0288 33.3992 17.7019 33.2774C11.377 31.0933 6.06836 27.3014 6.06836 19.7176V9.10031C6.06836 8.69804 6.22816 8.31224 6.51261 8.0278C6.79706 7.74335 7.18285 7.58355 7.58512 7.58355C10.6186 7.58355 14.4105 5.76344 17.0497 3.45797C17.371 3.18343 17.7798 3.03259 18.2024 3.03259C18.6251 3.03259 19.0338 3.18343 19.3552 3.45797C22.0095 5.77861 25.7862 7.58355 28.8197 7.58355C29.222 7.58355 29.6078 7.74335 29.8922 8.0278C30.1767 8.31224 30.3365 8.69804 30.3365 9.10031V19.7176Z" stroke="#200505" stroke-width="3.03352" stroke-linecap="round" stroke-linejoin="round"/>
</svg>
