<svg width="48" height="48" viewBox="0 0 48 48" fill="none" xmlns="http://www.w3.org/2000/svg">
<path d="M7 25.0806H12C12.1365 25.076 12.2725 25.1002 12.399 25.1518C12.5256 25.2033 12.6398 25.281 12.7342 25.3798C12.8286 25.4785 12.9011 25.5961 12.9469 25.7248C12.9927 25.8535 13.0108 25.9904 13 26.1266V44.9466C13.0111 45.0828 12.9933 45.2198 12.9475 45.3486C12.9018 45.4773 12.8293 45.5949 12.7348 45.6936C12.6403 45.7922 12.5259 45.8697 12.3993 45.9209C12.2726 45.9721 12.1365 45.9959 12 45.9906H7" stroke="#FAFAFA" stroke-width="2" stroke-linecap="round" stroke-linejoin="round"/>
<path d="M21.302 20.668L17.458 25.454C17.2055 25.7686 16.8881 26.025 16.5274 26.2055C16.1666 26.386 15.7712 26.4865 15.368 26.5H13M13 40.56C17.288 43.81 21.2 45.992 23.726 45.992H36.272C37.792 45.992 38.748 45.884 39.408 43.902C40.416 38.842 41.114 33.726 41.5 28.582C41.5 27.538 40.454 26.492 38.364 26.492H26.5M21.766 23.91L18.67 2.246C18.648 2.09124 18.6594 1.93355 18.7035 1.78359C18.7477 1.63362 18.8235 1.49489 18.9259 1.37676C19.0283 1.25864 19.1549 1.16387 19.297 1.09887C19.4392 1.03387 19.5937 1.00016 19.75 1H34.858" stroke="#FAFAFA" stroke-width="2" stroke-linecap="round" stroke-linejoin="round"/>
<path d="M28.3376 26.5002L26.5056 8.18224C26.4907 8.0423 26.5055 7.90078 26.549 7.76694C26.5926 7.6331 26.6639 7.50995 26.7582 7.40556C26.8526 7.30116 26.968 7.21787 27.0968 7.16112C27.2256 7.10437 27.3649 7.07545 27.5056 7.07624H41.3056C41.451 7.07451 41.595 7.10448 41.7275 7.16407C41.8601 7.22366 41.9781 7.31144 42.0733 7.42129C42.1685 7.53114 42.2386 7.66042 42.2787 7.80013C42.3188 7.93984 42.328 8.08662 42.3056 8.23024L39.5456 26.6302" stroke="#FAFAFA" stroke-width="2" stroke-linecap="round" stroke-linejoin="round"/>
<path d="M34.0469 18.2402C33.848 18.2402 33.6572 18.1612 33.5165 18.0206C33.3759 17.8799 33.2969 17.6891 33.2969 17.4902C33.2969 17.2913 33.3759 17.1006 33.5165 16.9599C33.6572 16.8193 33.848 16.7402 34.0469 16.7402M34.0469 18.2402C34.2458 18.2402 34.4366 18.1612 34.5772 18.0206C34.7179 17.8799 34.7969 17.6891 34.7969 17.4902C34.7969 17.2913 34.7179 17.1006 34.5772 16.9599C34.4366 16.8193 34.2458 16.7402 34.0469 16.7402" stroke="#FAFAFA" stroke-width="2"/>
</svg>
