<svg width="37" height="37" viewBox="0 0 37 37" fill="none" xmlns="http://www.w3.org/2000/svg">
<path d="M18.5346 3.03345H17.8672C17.0627 3.03345 16.2911 3.35305 15.7222 3.92194C15.1533 4.49084 14.8337 5.26242 14.8337 6.06696V6.33998C14.8332 6.87195 14.6927 7.39441 14.4265 7.85497C14.1603 8.31553 13.7777 8.69799 13.317 8.96397L12.6648 9.34316C12.2036 9.60941 11.6805 9.74958 11.148 9.74958C10.6155 9.74958 10.0924 9.60941 9.63124 9.34316L9.40373 9.22182C8.70763 8.82028 7.88066 8.71135 7.10433 8.91894C6.328 9.12653 5.66576 9.63367 5.26298 10.3291L4.92929 10.9054C4.52775 11.6015 4.41882 12.4285 4.62641 13.2048C4.834 13.9812 5.34115 14.6434 6.03652 15.0462L6.26404 15.1978C6.72252 15.4625 7.10375 15.8426 7.36983 16.3003C7.63592 16.7579 7.7776 17.2773 7.7808 17.8067V18.5802C7.78292 19.1148 7.64376 19.6404 7.37741 20.1038C7.11105 20.5673 6.72697 20.9521 6.26404 21.2194L6.03652 21.3559C5.34115 21.7587 4.834 22.4209 4.62641 23.1972C4.41882 23.9736 4.52775 24.8005 4.92929 25.4966L5.26298 26.073C5.66576 26.7684 6.328 27.2755 7.10433 27.4831C7.88066 27.6907 8.70763 27.5818 9.40373 27.1802L9.63124 27.0589C10.0924 26.7926 10.6155 26.6525 11.148 26.6525C11.6805 26.6525 12.2036 26.7926 12.6648 27.0589L13.317 27.4381C13.7777 27.7041 14.1603 28.0865 14.4265 28.5471C14.6927 29.0076 14.8332 29.5301 14.8337 30.0621V30.3351C14.8337 31.1396 15.1533 31.9112 15.7222 32.4801C16.2911 33.049 17.0627 33.3686 17.8672 33.3686H18.5346C19.3391 33.3686 20.1107 33.049 20.6796 32.4801C21.2485 31.9112 21.5681 31.1396 21.5681 30.3351V30.0621C21.5687 29.5301 21.7091 29.0076 21.9753 28.5471C22.2415 28.0865 22.6242 27.7041 23.0849 27.4381L23.7371 27.0589C24.1982 26.7926 24.7214 26.6525 25.2538 26.6525C25.7863 26.6525 26.3095 26.7926 26.7706 27.0589L26.9981 27.1802C27.6942 27.5818 28.5212 27.6907 29.2975 27.4831C30.0739 27.2755 30.7361 26.7684 31.1389 26.073L31.4726 25.4815C31.8741 24.7854 31.983 23.9584 31.7754 23.1821C31.5679 22.4057 31.0607 21.7435 30.3653 21.3407L30.1378 21.2194C29.6749 20.9521 29.2908 20.5673 29.0244 20.1038C28.7581 19.6404 28.6189 19.1148 28.6211 18.5802V17.8218C28.6189 17.2873 28.7581 16.7617 29.0244 16.2982C29.2908 15.8348 29.6749 15.4499 30.1378 15.1827L30.3653 15.0462C31.0607 14.6434 31.5679 13.9812 31.7754 13.2048C31.983 12.4285 31.8741 11.6015 31.4726 10.9054L31.1389 10.3291C30.7361 9.63367 30.0739 9.12653 29.2975 8.91894C28.5212 8.71135 27.6942 8.82028 26.9981 9.22182L26.7706 9.34316C26.3095 9.60941 25.7863 9.74958 25.2538 9.74958C24.7214 9.74958 24.1982 9.60941 23.7371 9.34316L23.0849 8.96397C22.6242 8.69799 22.2415 8.31553 21.9753 7.85497C21.7091 7.39441 21.5687 6.87195 21.5681 6.33998V6.06696C21.5681 5.26242 21.2485 4.49084 20.6796 3.92194C20.1107 3.35305 19.3391 3.03345 18.5346 3.03345Z" stroke="#200505" stroke-width="3.03352" stroke-linecap="round" stroke-linejoin="round"/>
<path d="M18.2007 22.7514C20.7137 22.7514 22.7509 20.7142 22.7509 18.2012C22.7509 15.6881 20.7137 13.6509 18.2007 13.6509C15.6876 13.6509 13.6504 15.6881 13.6504 18.2012C13.6504 20.7142 15.6876 22.7514 18.2007 22.7514Z" stroke="#200505" stroke-width="3.03352" stroke-linecap="round" stroke-linejoin="round"/>
</svg>
