<svg width="26" height="45" viewBox="0 0 26 45" fill="none" xmlns="http://www.w3.org/2000/svg">
<g clip-path="url(#clip0_72_3305)">
<path d="M16.8979 1.28864e-06H23.3359C23.5493 1.28864e-06 23.754 0.0847867 23.9049 0.235706C24.0558 0.386625 24.1406 0.591315 24.1406 0.804747V7.24271C24.1409 7.40208 24.0939 7.55795 24.0055 7.69056C23.9171 7.82316 23.7913 7.92653 23.644 7.98756C23.4968 8.04858 23.3348 8.06452 23.1785 8.03335C23.0222 8.00218 22.8787 7.92531 22.7661 7.81247L20.1169 5.16164L1.37277 23.9074L0.233249 22.7679L18.979 4.02373L16.3282 1.37451C16.2153 1.26196 16.1384 1.11843 16.1073 0.96214C16.0761 0.805845 16.092 0.643814 16.1531 0.496588C16.2141 0.349363 16.3175 0.223573 16.4501 0.135166C16.5827 0.046759 16.7385 -0.000283857 16.8979 1.28864e-06Z" fill="white"/>
</g>
<rect x="2.83594" y="25.5625" width="5.68056" height="18.4618" fill="white"/>
<rect x="11.3594" y="19.8828" width="5.68056" height="24.1424" fill="white"/>
<rect x="19.8828" y="9.94141" width="5.68056" height="34.0833" fill="white"/>
<defs>
<clipPath id="clip0_72_3305">
<rect width="24.1424" height="24.1424" fill="white" transform="matrix(-1 0 0 1 24.1406 0)"/>
</clipPath>
</defs>
</svg>
