<svg width="20" height="20" viewBox="0 0 20 20" fill="none" xmlns="http://www.w3.org/2000/svg">
<g clip-path="url(#clip0_94_7059)">
<path d="M0.426172 9.88041C0.425703 11.5608 0.868203 13.2016 1.70961 14.6478L0.345703 19.589L5.44195 18.2631C6.85152 19.0245 8.43082 19.4235 10.0357 19.4236H10.0399C15.338 19.4236 19.6507 15.1458 19.653 9.88793C19.654 7.3401 18.6549 4.94428 16.8398 3.1418C15.0249 1.33948 12.6113 0.346378 10.0395 0.345215C4.74086 0.345215 0.428438 4.62273 0.42625 9.88041" fill="url(#paint0_linear_94_7059)"/>
<path d="M0.0835938 9.87721C0.0830469 11.6181 0.541406 13.3175 1.41281 14.8155L0 19.9339L5.27898 18.5605C6.73352 19.3474 8.37117 19.7622 10.0376 19.7629H10.0419C15.53 19.7629 19.9977 15.3312 20 9.88512C20.0009 7.24574 18.9659 4.7638 17.0859 2.89674C15.2057 1.02992 12.7057 0.00108527 10.0419 0C4.55281 0 0.0857813 4.43101 0.0835938 9.87721ZM3.22742 14.5575L3.03031 14.2471C2.20172 12.9398 1.76437 11.4291 1.765 9.87783C1.76672 5.35109 5.47953 1.66822 10.045 1.66822C12.2559 1.66915 14.3337 2.52434 15.8966 4.07597C17.4593 5.62775 18.3192 7.69054 18.3187 9.8845C18.3166 14.4112 14.6037 18.0946 10.0419 18.0946H10.0386C8.5532 18.0938 7.09641 17.698 5.82594 16.95L5.52359 16.7721L2.39094 17.5871L3.22742 14.5575Z" fill="url(#paint1_linear_94_7059)"/>
<path d="M7.55352 5.74801C7.36711 5.33692 7.17094 5.32863 6.99367 5.32142C6.84852 5.31522 6.68258 5.31568 6.5168 5.31568C6.35086 5.31568 6.08125 5.37762 5.85336 5.62452C5.62523 5.87165 4.98242 6.46886 4.98242 7.68351C4.98242 8.89816 5.87406 10.0721 5.99836 10.237C6.12281 10.4016 7.71969 12.974 10.2487 13.9636C12.3506 14.786 12.7784 14.6224 13.2345 14.5812C13.6908 14.5401 14.7067 13.9841 14.914 13.4076C15.1214 12.8312 15.1214 12.3371 15.0592 12.2338C14.997 12.131 14.8311 12.0692 14.5823 11.9458C14.3334 11.8223 13.1101 11.225 12.882 11.1426C12.6539 11.0603 12.488 11.0192 12.3221 11.2664C12.1562 11.5132 11.6797 12.0692 11.5345 12.2338C11.3894 12.3989 11.2441 12.4194 10.9954 12.2959C10.7464 12.172 9.94508 11.9116 8.99438 11.0706C8.25469 10.4162 7.75531 9.60808 7.61016 9.36088C7.465 9.11405 7.59461 8.98026 7.71938 8.85723C7.83117 8.74661 7.96828 8.56894 8.09281 8.42483C8.21687 8.28064 8.25828 8.17777 8.34125 8.01312C8.4243 7.84832 8.38273 7.70413 8.32063 7.58064C8.25828 7.45715 7.77477 6.23615 7.55352 5.74801Z" fill="white"/>
</g>
<defs>
<linearGradient id="paint0_linear_94_7059" x1="965.709" y1="1924.73" x2="965.709" y2="0.345215" gradientUnits="userSpaceOnUse">
<stop stop-color="#1FAF38"/>
<stop offset="1" stop-color="#60D669"/>
</linearGradient>
<linearGradient id="paint1_linear_94_7059" x1="1000" y1="1993.39" x2="1000" y2="0" gradientUnits="userSpaceOnUse">
<stop stop-color="#F9F9F9"/>
<stop offset="1" stop-color="white"/>
</linearGradient>
<clipPath id="clip0_94_7059">
<rect width="20" height="20" fill="white"/>
</clipPath>
</defs>
</svg>
