<svg width="42" height="50" viewBox="0 0 42 50" fill="none" xmlns="http://www.w3.org/2000/svg">
<path d="M36.7544 37.8149V4.4658H33.7644C33.7644 4.89196 33.7644 5.27352 33.7644 5.65012C33.7644 16.9036 33.754 28.1521 33.7748 39.4056C33.7748 40.0349 33.572 40.4363 33.0572 40.8228C31.7988 41.7742 30.5924 42.7851 29.2144 43.8951V4.40634C28.528 4.40634 27.9144 4.37661 27.3112 4.42616C27.15 4.44103 26.9472 4.68879 26.8848 4.86223C26.812 5.07531 26.864 5.33298 26.864 5.57083C26.864 16.5865 26.864 27.6021 26.864 38.6127C26.864 40.7782 26.9004 42.9486 26.89 45.1141C26.89 45.4114 26.812 45.8128 26.604 45.9862C25.0232 47.3142 23.3957 48.6026 21.6641 50V0.0605469H41.9856C41.9856 0.407418 41.9856 0.724556 41.9856 1.04665C41.9856 11.5866 41.9804 22.1265 42.0012 32.6664C42.0012 33.3155 41.8296 33.7565 41.2784 34.1777C39.7808 35.3175 38.3456 36.5266 36.7388 37.8199L36.7544 37.8149Z" fill="#ED1C24"/>
<path d="M15.1792 19.7667V0.00991059H20.3999V49.994C19.2091 49.0326 18.1743 48.0515 16.9887 47.2834C15.5588 46.3568 15.1116 45.2319 15.148 43.5719C15.2728 37.4868 15.2052 31.4017 15.2104 25.3166C15.2104 24.9945 15.2104 24.6774 15.2104 24.2859H5.3408V37.8238C4.0928 36.8129 3.11001 35.8615 1.96601 35.138C0.400817 34.1519 -0.0151812 32.9032 0.000418747 31.1341C0.0992183 21.0996 0.0472186 11.0652 0.0472186 1.0307C0.0472186 0.708607 0.0472186 0.386513 0.0472186 0H5.2836V19.7667H15.174H15.1792Z" fill="#ED1C24"/>
</svg>
