<svg width="76" height="78" viewBox="0 0 76 78" fill="none" xmlns="http://www.w3.org/2000/svg">
<rect x="0.437625" y="0.437625" width="74.3963" height="77.022" rx="8.31488" fill="#FFE0B7" fill-opacity="0.34" stroke="#FFE0B7" stroke-width="0.87525"/>
<path d="M51.5462 38.9487C49.8022 37.4868 47.5851 36.7108 45.31 36.7661H30.6863C30.0195 36.7829 29.3562 36.665 28.7361 36.4195C28.1159 36.174 27.5517 35.8058 27.0772 35.3371C26.6026 34.8684 26.2276 34.3088 25.9744 33.6917C25.7212 33.0747 25.5952 32.4129 25.6038 31.746C25.5875 31.4864 25.5875 31.226 25.6038 30.9664C25.8004 29.7747 26.4253 28.6958 27.3611 27.9322C28.2969 27.1686 29.4793 26.7729 30.6863 26.8194H45.0918C46.2669 26.8184 47.4041 27.2348 48.3007 27.9943C49.1973 28.7538 49.795 29.8072 49.9872 30.9664H54.6643C54.4685 28.5622 53.3751 26.3197 51.6015 24.6847C49.8279 23.0498 47.504 22.1422 45.0918 22.1423H40.1652V14.9707H36.2676V22.1423H30.6863C28.2741 22.1422 25.9501 23.0498 24.1765 24.6847C22.4029 26.3197 21.3095 28.5622 21.1138 30.9664C21.0975 31.226 21.0975 31.4864 21.1138 31.746C21.1138 33.003 21.3614 34.2478 21.8424 35.4092C22.3235 36.5706 23.0286 37.6259 23.9175 38.5147C25.7127 40.3099 28.1475 41.3185 30.6863 41.3185H45.466C46.1274 41.3018 46.7856 41.4178 47.4015 41.6594C48.0175 41.9011 48.5789 42.2637 49.0525 42.7257C49.5262 43.1877 49.9026 43.7399 50.1595 44.3497C50.4164 44.9595 50.5486 45.6145 50.5484 46.2762C50.5785 46.629 50.5785 46.9836 50.5484 47.3364C50.3008 48.4335 49.6876 49.4138 48.8094 50.1164C47.9311 50.819 46.8401 51.2021 45.7154 51.2028H31.0604C29.9357 51.2021 28.8447 50.819 27.9665 50.1164C27.0882 49.4138 26.475 48.4335 26.2274 47.3364H21.5191C21.7871 49.6791 22.9076 51.8415 24.6672 53.4113C26.4267 54.9811 28.7024 55.8487 31.0604 55.8487H36.2676V62.9268H40.1652V55.8487H45.466C47.824 55.8487 50.0996 54.9811 51.8592 53.4113C53.6188 51.8415 54.7393 49.6791 55.0073 47.3364V46.2762C55.0035 44.8757 54.6915 43.4931 54.0933 42.2268C53.4952 40.9604 52.6255 39.8412 51.5462 38.9487Z" fill="#FFE0B7"/>
</svg>
