<svg width="76" height="78" viewBox="0 0 76 78" fill="none" xmlns="http://www.w3.org/2000/svg">
<rect x="0.437625" y="0.437625" width="74.3963" height="77.022" rx="8.31488" fill="#FFE0B7" fill-opacity="0.34" stroke="#FFE0B7" stroke-width="0.87525"/>
<path opacity="0.5" d="M57.9884 34.7919H16.4141V53.5003C16.4141 55.1543 17.0711 56.7405 18.2406 57.91C19.4101 59.0795 20.9963 59.7365 22.6502 59.7365H51.7523C53.4062 59.7365 54.9924 59.0795 56.1619 57.91C57.3314 56.7405 57.9884 55.1543 57.9884 53.5003V34.7919ZM26.8077 30.6344C26.2563 30.6344 25.7276 30.4154 25.3378 30.0256C24.9479 29.6357 24.7289 29.107 24.7289 28.5557V20.2408C24.7289 19.6895 24.9479 19.1608 25.3378 18.771C25.7276 18.3811 26.2563 18.1621 26.8077 18.1621C27.359 18.1621 27.8877 18.3811 28.2775 18.771C28.6674 19.1608 28.8864 19.6895 28.8864 20.2408V28.5557C28.8864 29.107 28.6674 29.6357 28.2775 30.0256C27.8877 30.4154 27.359 30.6344 26.8077 30.6344ZM47.5948 30.6344C47.0435 30.6344 46.5148 30.4154 46.125 30.0256C45.7351 29.6357 45.5161 29.107 45.5161 28.5557V20.2408C45.5161 19.6895 45.7351 19.1608 46.125 18.771C46.5148 18.3811 47.0435 18.1621 47.5948 18.1621C48.1462 18.1621 48.6749 18.3811 49.0647 18.771C49.4546 19.1608 49.6736 19.6895 49.6736 20.2408V28.5557C49.6736 29.107 49.4546 29.6357 49.0647 30.0256C48.6749 30.4154 48.1462 30.6344 47.5948 30.6344Z" fill="#FFE0B7"/>
<path d="M51.7523 22.3184H49.6736V28.5545C49.6736 29.1058 49.4546 29.6346 49.0647 30.0244C48.6749 30.4142 48.1462 30.6332 47.5948 30.6332C47.0435 30.6332 46.5148 30.4142 46.125 30.0244C45.7351 29.6346 45.5161 29.1058 45.5161 28.5545V22.3184H28.8864V28.5545C28.8864 29.1058 28.6674 29.6346 28.2775 30.0244C27.8877 30.4142 27.359 30.6332 26.8077 30.6332C26.2563 30.6332 25.7276 30.4142 25.3378 30.0244C24.9479 29.6346 24.7289 29.1058 24.7289 28.5545V22.3184H22.6502C20.9963 22.3184 19.4101 22.9754 18.2406 24.1449C17.0711 25.3144 16.4141 26.9006 16.4141 28.5545V34.7907H57.9884V28.5545C57.9884 26.9006 57.3314 25.3144 56.1619 24.1449C54.9924 22.9754 53.4062 22.3184 51.7523 22.3184Z" fill="#FFE0B7"/>
</svg>
